<svg width="20" height="20" viewBox="0 0 20 20" fill="none" xmlns="http://www.w3.org/2000/svg">
<mask id="mask0_9_92" style="mask-type:alpha" maskUnits="userSpaceOnUse" x="0" y="0" width="20" height="20">
<rect width="20" height="20" fill="#D9D9D9"/>
</mask>
<g mask="url(#mask0_9_92)">
<path d="M9.99998 18C9.02776 18 8.11713 17.8153 7.2681 17.4458C6.41894 17.0764 5.68005 16.5773 5.05144 15.9486C4.42269 15.3199 3.92359 14.5811 3.55415 13.7319C3.1847 12.8829 2.99998 11.9722 2.99998 11C2.99998 10.0278 3.1847 9.11716 3.55415 8.26814C3.92359 7.41897 4.42269 6.68008 5.05144 6.05147C5.68005 5.42272 6.41894 4.92362 7.2681 4.55418C8.11713 4.18473 9.02776 4.00001 9.99998 4.00001C10.9722 4.00001 11.8828 4.18473 12.7319 4.55418C13.581 4.92362 14.3199 5.42272 14.9485 6.05147C15.5773 6.68008 16.0764 7.41897 16.4458 8.26814C16.8153 9.11716 17 10.0278 17 11C17 11.9722 16.8153 12.8829 16.4458 13.7319C16.0764 14.5811 15.5773 15.3199 14.9485 15.9486C14.3199 16.5773 13.581 17.0764 12.7319 17.4458C11.8828 17.8153 10.9722 18 9.99998 18ZM12.0833 13.8333L13.1458 12.7708L10.75 10.375V7.00001H9.24998V11L12.0833 13.8333ZM4.93748 2.39584L5.99998 3.45834L2.45831 7.00001L1.39581 5.93751L4.93748 2.39584ZM15.0625 2.39584L18.6041 5.93751L17.5416 7.00001L14 3.45834L15.0625 2.39584ZM9.9954 16.5C11.5262 16.5 12.8264 15.9668 13.8958 14.9004C14.9653 13.834 15.5 12.5354 15.5 11.0046C15.5 9.47376 14.9668 8.17362 13.9004 7.10418C12.834 6.03473 11.5354 5.50001 10.0046 5.50001C8.47373 5.50001 7.17359 6.03321 6.10415 7.09959C5.0347 8.16598 4.49998 9.46459 4.49998 10.9954C4.49998 12.5263 5.03317 13.8264 6.09956 14.8958C7.16595 15.9653 8.46456 16.5 9.9954 16.5Z" fill="#1C1B1F"/>
</g>
</svg>
